<svg width="143" height="48" viewBox="0 0 143 48" fill="none" xmlns="http://www.w3.org/2000/svg">
<g clip-path="url(#clip0_80_2)">
<path fill-rule="evenodd" clip-rule="evenodd" d="M62.4592 14.8267C61.7599 14.8148 61.2088 15.0459 60.794 15.5141C60.3851 15.9881 60.1777 16.5867 60.1777 17.3215V21.9496H58.5066V17.0844C58.5066 16.3852 58.3407 15.8341 58.0029 15.4311C57.6651 15.0281 57.2148 14.8267 56.6518 14.8267C55.9881 14.8267 55.4251 15.0341 54.9629 15.4489C54.4948 15.8637 54.2636 16.4918 54.2636 17.3215V21.9496H52.5925V13.3689H54.2636V14.6548C54.471 14.2281 54.8088 13.8904 55.2829 13.6474C55.757 13.4044 56.2073 13.2622 56.634 13.2267C56.9659 13.2148 57.2799 13.2326 57.5703 13.28C58.6607 13.4518 59.4073 14.0089 59.8103 14.9511C60.4207 13.7778 61.4162 13.1852 62.7851 13.1852C63.8518 13.1852 64.6696 13.517 65.2385 14.1748C65.8073 14.8385 66.0918 15.7748 66.0918 16.9837V21.9437H64.4207V17.0963C64.4207 16.3852 64.2488 15.8281 63.8992 15.4252C63.5496 15.0222 63.0696 14.8207 62.4592 14.8207V14.8267Z" fill="white"/>
<path fill-rule="evenodd" clip-rule="evenodd" d="M70.4295 21.9555V13.3748H68.7761V21.9555H70.4295ZM68.788 10.9866C68.5628 10.7792 68.4502 10.5185 68.4502 10.2162C68.4502 9.91402 68.5628 9.65329 68.788 9.44588C69.0132 9.23847 69.2857 9.13181 69.6057 9.13181C69.9257 9.13181 70.1983 9.23847 70.4235 9.44588C70.6487 9.65329 70.7613 9.91402 70.7613 10.2162C70.7613 10.5185 70.6487 10.7792 70.4235 10.9866C70.1983 11.194 69.9257 11.3007 69.6057 11.3007C69.2857 11.3007 69.0132 11.194 68.788 10.9866Z" fill="white"/>
<path fill-rule="evenodd" clip-rule="evenodd" d="M73.9733 20.883C73.0904 20.0415 72.6519 18.963 72.6519 17.6415C72.6519 16.32 73.0904 15.2474 73.9733 14.4237C74.8563 13.6 75.9289 13.1911 77.1852 13.1911C78.5422 13.1911 79.6445 13.6474 80.4919 14.5659L79.2237 15.6326C78.6845 15.0934 78.003 14.8267 77.1852 14.8267C76.3674 14.8267 75.7096 15.0874 75.1467 15.6089C74.5837 16.1304 74.2993 16.8059 74.2993 17.6415C74.2993 18.4771 74.5837 19.1763 75.1467 19.7156C75.7096 20.2548 76.3911 20.5215 77.1852 20.5215C77.9793 20.5215 78.6845 20.2371 79.2237 19.6741L80.5096 20.7408C79.6504 21.6711 78.5422 22.1393 77.1852 22.1393C75.923 22.1393 74.8504 21.7185 73.9733 20.883Z" fill="white"/>
<path fill-rule="evenodd" clip-rule="evenodd" d="M84.2964 18.8326V21.9556H82.6252V13.3748H84.2964V15.3067C84.7112 13.8963 85.5112 13.1971 86.6845 13.1971C87.3601 13.1971 87.8519 13.3096 88.1719 13.5289L87.9171 15.0934C87.5141 14.8978 87.0934 14.7971 86.649 14.7971C85.8667 14.7971 85.2801 15.1704 84.883 15.9111C84.4919 16.6519 84.2964 17.6296 84.2964 18.8385V18.8326Z" fill="white"/>
<path fill-rule="evenodd" clip-rule="evenodd" d="M96.7646 20.883C95.8875 21.7244 94.8268 22.1393 93.5764 22.1393C92.3261 22.1393 91.2653 21.7244 90.4001 20.8889C89.529 20.0533 89.0964 18.9748 89.0964 17.6355C89.0964 16.2963 89.529 15.2415 90.3942 14.4178C91.2594 13.5941 92.3201 13.1852 93.5824 13.1852C94.8446 13.1852 95.9112 13.5941 96.7764 14.4178C97.6475 15.2356 98.0801 16.3081 98.0801 17.6355C98.0801 18.963 97.6416 20.0415 96.7646 20.877V20.883ZM91.5675 19.7274C92.1127 20.2607 92.7824 20.5274 93.5764 20.5274C94.3705 20.5274 95.0401 20.2607 95.5853 19.7274C96.1305 19.1941 96.4031 18.5007 96.4031 17.6415C96.4031 16.7822 96.1305 16.1185 95.5853 15.603C95.0401 15.0874 94.3705 14.8326 93.5764 14.8326C92.7824 14.8326 92.1127 15.0874 91.5675 15.603C91.0224 16.1185 90.7498 16.7941 90.7498 17.6415C90.7498 18.4889 91.0224 19.1941 91.5675 19.7274Z" fill="white"/>
<path fill-rule="evenodd" clip-rule="evenodd" d="M101.049 20.883C100.166 20.0415 99.7275 18.963 99.7275 17.6415C99.7275 16.32 100.166 15.2474 101.049 14.4237C101.932 13.6 103.005 13.1911 104.261 13.1911C105.618 13.1911 106.72 13.6474 107.568 14.5659L106.299 15.6326C105.76 15.0934 105.079 14.8267 104.261 14.8267C103.443 14.8267 102.785 15.0874 102.222 15.6089C101.659 16.1304 101.375 16.8059 101.375 17.6415C101.375 18.4771 101.659 19.1763 102.222 19.7156C102.785 20.2548 103.467 20.5215 104.261 20.5215C105.055 20.5215 105.76 20.2371 106.299 19.6741L107.585 20.7408C106.726 21.6711 105.618 22.1393 104.261 22.1393C102.999 22.1393 101.926 21.7185 101.049 20.883Z" fill="white"/>
<path fill-rule="evenodd" clip-rule="evenodd" d="M116.581 20.883C115.704 21.7244 114.643 22.1393 113.393 22.1393C112.142 22.1393 111.081 21.7244 110.216 20.8889C109.345 20.0533 108.913 18.9748 108.913 17.6355C108.913 16.2963 109.345 15.2415 110.21 14.4178C111.076 13.6 112.136 13.1852 113.399 13.1852C114.661 13.1852 115.727 13.5941 116.593 14.4178C117.464 15.2356 117.896 16.3081 117.896 17.6355C117.896 18.963 117.458 20.0415 116.581 20.877V20.883ZM111.384 19.7274C111.929 20.2607 112.599 20.5274 113.393 20.5274C114.187 20.5274 114.856 20.2607 115.401 19.7274C115.947 19.1941 116.219 18.5007 116.219 17.6415C116.219 16.7822 115.947 16.1185 115.401 15.603C114.856 15.0874 114.187 14.8326 113.393 14.8326C112.599 14.8326 111.929 15.0874 111.384 15.603C110.839 16.1185 110.566 16.7941 110.566 17.6415C110.566 18.4889 110.839 19.1941 111.384 19.7274Z" fill="white"/>
<path fill-rule="evenodd" clip-rule="evenodd" d="M122.068 18.1689C121.25 17.9496 120.64 17.6178 120.249 17.1793C119.858 16.7408 119.698 16.1363 119.769 15.3778C119.828 14.7556 120.148 14.2341 120.723 13.8193C121.298 13.4045 121.973 13.1971 122.744 13.1971C123.514 13.1971 124.219 13.3985 124.776 13.7956C125.333 14.1926 125.647 14.803 125.724 15.6208H124.124C124.077 15.3126 123.923 15.0756 123.674 14.9037C123.425 14.7319 123.129 14.6489 122.785 14.6489C122.465 14.6489 122.187 14.72 121.95 14.8622C121.713 15.0045 121.559 15.1882 121.499 15.4252C121.428 15.6919 121.434 15.923 121.517 16.1067C121.653 16.3911 121.991 16.6104 122.524 16.7704L123.793 17.0845C125.274 17.4519 126.015 18.2874 126.015 19.5852C126.015 20.3556 125.695 20.9778 125.049 21.4519C124.409 21.9259 123.621 22.1571 122.69 22.1571C121.873 22.1571 121.138 21.9082 120.498 21.4045C119.858 20.9008 119.52 20.2371 119.496 19.4015H121.019C121.09 19.8519 121.327 20.1778 121.719 20.3734C122.098 20.6045 122.554 20.7052 123.076 20.6696C123.467 20.6459 123.781 20.5274 124.012 20.32C124.243 20.1126 124.367 19.8519 124.379 19.5496C124.391 19.2534 124.296 19.0222 124.083 18.8504C123.876 18.6785 123.591 18.5482 123.236 18.4652L122.062 18.1926L122.068 18.1689Z" fill="white"/>
<path fill-rule="evenodd" clip-rule="evenodd" d="M138.051 14.8267C137.351 14.8148 136.8 15.0459 136.385 15.5141C135.971 15.9822 135.769 16.5867 135.769 17.3215V21.9496H134.098V17.0844C134.098 16.3852 133.932 15.8341 133.594 15.4311C133.256 15.0281 132.806 14.8267 132.243 14.8267C131.579 14.8267 131.016 15.0341 130.554 15.4489C130.086 15.8637 129.855 16.4918 129.855 17.3215V21.9496H128.184V13.3689H129.855V14.6548C130.062 14.2281 130.4 13.8904 130.874 13.6474C131.348 13.4044 131.799 13.2622 132.225 13.2267C132.557 13.2148 132.871 13.2326 133.162 13.28C134.252 13.4518 134.999 14.0089 135.402 14.9511C136.012 13.7778 137.008 13.1852 138.376 13.1852C139.443 13.1852 140.261 13.517 140.83 14.1748C141.399 14.8385 141.683 15.7748 141.683 16.9837V21.9437H140.012V17.0963C140.012 16.3852 139.84 15.8281 139.491 15.4252C139.141 15.0222 138.661 14.8207 138.051 14.8207V14.8267Z" fill="white"/>
<g clip-path="url(#clip1_80_2)">
<path d="M54.6075 29.3412V30.722C55.2128 29.7195 56.4424 29.1521 57.6908 29.1521C60.112 29.1521 62.117 30.9869 62.117 33.7864C62.117 36.5859 60.112 38.3639 57.6908 38.3639C56.4424 38.3639 55.2128 37.8532 54.6075 36.8507V42.4686H52.8862V29.3412H54.6075ZM54.6265 33.8053C54.6265 35.6969 56.1019 36.6804 57.5205 36.6804C59.1094 36.6804 60.3768 35.5645 60.3768 33.8053C60.3768 32.0461 59.1094 30.8356 57.5205 30.8356C55.9695 30.8356 54.6265 31.9326 54.6265 33.8053Z" fill="white"/>
<path d="M65.7653 29.3412V38.1748H64.0629V29.3412H65.7653ZM63.7224 26.0877C63.7224 25.4257 64.2521 24.9717 64.9141 24.9717C65.5762 24.9717 66.1058 25.4257 66.1058 26.0877C66.1058 26.7498 65.5762 27.2037 64.9141 27.2037C64.2521 27.2037 63.7224 26.7498 63.7224 26.0877Z" fill="white"/>
<path d="M67.8735 33.7296C67.8735 30.9302 70.0299 29.1521 72.5457 29.1521C73.9076 29.1521 75.1182 29.6628 75.9505 30.5707L74.6453 31.6678C74.1157 31.1382 73.359 30.8356 72.5457 30.8356C70.9568 30.8356 69.5759 31.9515 69.5759 33.7296C69.5759 35.4888 70.9568 36.6994 72.5457 36.6994C73.359 36.6994 74.1157 36.3778 74.6453 35.8292L75.9694 36.9264C75.1371 37.8343 73.9076 38.3639 72.5457 38.3639C70.0299 38.3639 67.8735 36.5291 67.8735 33.7296Z" fill="white"/>
<path d="M80.5321 29.3412H82.4048V30.7977H80.5321V38.1748H78.8108V30.7977H77.2219V29.3412H78.8108V26.0121H80.5321V29.3412Z" fill="white"/>
<path d="M90.387 34.1079V29.3412H92.1083V38.1748H90.387V36.8507C89.8385 37.9099 88.609 38.3639 87.6443 38.3639C85.4312 38.3639 84.2206 36.9453 84.2395 34.4484V29.3412H85.9608V34.3349C85.9608 35.8292 86.6796 36.6804 87.8902 36.6804C89.1386 36.6804 90.387 35.9995 90.387 34.1079Z" fill="white"/>
<path d="M96.8773 34.9591V38.1748H95.156V29.3412H96.8773V31.3274C97.3313 29.7574 98.1825 29.1521 99.3363 29.1521C99.9606 29.1521 100.623 29.3223 100.869 29.4925L100.604 31.1003C100.131 30.8734 99.6579 30.7977 99.2985 30.7977C97.5961 30.7977 96.8773 32.6136 96.8773 34.9591Z" fill="white"/>
<path d="M103.538 33.0676H109.024C108.816 31.5732 107.776 30.7031 106.338 30.7031C104.881 30.7031 103.747 31.5732 103.538 33.0676ZM110.726 33.7296C110.726 33.9377 110.726 34.2025 110.707 34.4106H103.538C103.747 35.9049 104.881 36.8129 106.395 36.8129C107.454 36.8129 108.419 36.34 108.929 35.4509C109.383 35.659 109.932 35.8103 110.405 36.0184C109.648 37.5884 108.059 38.3639 106.338 38.3639C103.822 38.3639 101.817 36.5291 101.817 33.7296C101.817 30.9302 103.822 29.1521 106.338 29.1521C108.854 29.1521 110.726 30.9302 110.726 33.7296Z" fill="white"/>
<path d="M116.286 34.562L115.075 34.2782C113.467 33.8431 112.559 33.0487 112.711 31.4031C112.862 30.1168 114.186 29.1521 115.775 29.1521C117.269 29.1521 118.688 29.852 118.839 31.6489H117.193C117.099 30.9869 116.494 30.6464 115.813 30.6464C115.151 30.6464 114.621 30.968 114.489 31.4409C114.413 31.7246 114.413 31.9516 114.508 32.1407C114.678 32.5001 115.094 32.6893 115.548 32.8217L116.853 33.1433C118.669 33.5973 119.142 34.7133 119.142 35.7158C119.142 37.3804 117.553 38.364 115.719 38.364C114.129 38.364 112.484 37.3425 112.427 35.5266H113.997C114.054 35.9049 114.281 36.3211 114.716 36.5292C115.113 36.7751 115.567 36.8696 116.116 36.8318C116.929 36.7751 117.439 36.34 117.458 35.678C117.477 35.0159 116.948 34.7133 116.286 34.562Z" fill="white"/>
</g>
<g clip-path="url(#clip2_80_2)">
<path opacity="0.45" d="M31.9354 45.932C44.0919 41.305 50.1934 27.7054 45.5634 15.5566C40.9335 3.40771 27.3253 -2.68992 15.1688 1.93714C3.01228 6.56419 -3.08919 20.1637 1.54078 32.3126C6.17075 44.4615 19.7789 50.5591 31.9354 45.932Z" fill="#2B3588"/>
<path opacity="0.46" d="M26.8809 35.5305C39.3848 31.945 48.0307 23.8473 46.1921 17.4438C44.3536 11.0403 32.7268 8.75581 20.2229 12.3413C7.71912 15.9268 -0.926797 24.0245 0.911754 30.4281C2.75031 36.8316 14.3771 39.1161 26.8809 35.5305Z" fill="#151D2E"/>
<path opacity="0.7" d="M30.0483 46.5618C36.4558 44.7245 38.7417 33.105 35.154 20.609C31.5662 8.11311 23.4634 -0.527349 17.0558 1.31004C10.6482 3.14743 8.36232 14.7669 11.9501 27.2628C15.5379 39.7588 23.6407 48.3992 30.0483 46.5618Z" fill="#1E295D"/>
<path opacity="0.37" fill-rule="evenodd" clip-rule="evenodd" d="M13.0046 18.0876C19.3075 6.71731 29.1427 0.113873 34.9746 3.33945C40.8065 6.56503 40.4186 18.4014 34.1157 29.7763C27.8129 41.1466 17.9777 47.75 12.1458 44.5244C6.31392 41.2988 6.70179 29.4625 13.0046 18.0876Z" fill="#E2D6EA"/>
<path opacity="0.43" fill-rule="evenodd" clip-rule="evenodd" d="M17.7145 34.4785C6.337 28.1796 -0.270612 18.3506 2.957 12.5224C6.18462 6.69423 18.0284 7.07724 29.4105 13.3807C40.788 19.6796 47.3956 29.5086 44.168 35.3368C40.9404 41.165 29.0965 40.782 17.7145 34.4785Z" fill="#061533"/>
<path fill-rule="evenodd" clip-rule="evenodd" d="M13.5633 31.8851C11.7671 29.4671 10.7467 25.5309 10.8667 22.4899C11.2638 19.412 13.5448 15.545 15.6042 13.9391C17.8252 12.3286 22.2719 11.0735 25.0054 11.2442C28.1869 11.8995 31.7654 14.0083 33.5616 15.9787C35.3578 18.1799 36.2721 22.4668 36.2582 25.374C35.778 28.8026 33.9587 31.5252 31.5207 33.9248C29.5952 35.4338 25.8827 36.7489 22.1195 36.6197C19.2197 36.3013 15.318 33.814 13.5633 31.8851Z" fill="#D1D3D4"/>
</g>
</g>
<defs>
<clipPath id="clip0_80_2">
<rect width="142.222" height="48" fill="white"/>
</clipPath>
<clipPath id="clip1_80_2">
<rect width="66.963" height="17.7778" fill="white" transform="translate(52.7407 24.7408)"/>
</clipPath>
<clipPath id="clip2_80_2">
<rect width="47.56" height="47.53" fill="white" transform="translate(-0.459961 0.279999)"/>
</clipPath>
</defs>
</svg>
